<svg role="img" viewBox="0 0 24 24" xmlns="http://www.w3.org/2000/svg" fill="currentColor">
  <title>GitHub</title>
  <path d="M12 0C5.37 0 0 5.37 0 12c0 5.3 3.438 9.8 8.205 11.385.6.113.82-.26.82-.577 0-.285-.01-1.04-.015-2.04-3.338.726-4.042-1.61-4.042-1.61-.546-1.387-1.333-1.756-1.333-1.756-1.09-.745.083-.73.083-.73 1.204.084 1.84 1.237 1.84 1.237 1.07 1.834 2.807 1.304 3.492.997.108-.775.42-1.305.763-1.604-2.665-.304-5.467-1.332-5.467-5.931 0-1.31.467-2.38 1.235-3.22-.123-.303-.535-1.524.117-3.176 0 0 1.008-.322 3.3 1.23.957-.266 1.984-.399 3.003-.404 1.02.005 2.047.138 3.006.404 2.29-1.552 3.295-1.23 3.295-1.23.654 1.653.242 2.874.12 3.176.77.84 1.232 1.91 1.232 3.22 0 4.61-2.807 5.625-5.48 5.921.431.37.816 1.102.816 2.222 0 1.604-.015 2.896-.015 3.286 0 .32.216.694.825.576C20.565 21.796 24 17.297 24 12c0-6.63-5.37-12-12-12z"/>
</svg>