<svg role="img" viewBox="0 0 24 24" xmlns="http://www.w3.org/2000/svg" fill="currentColor">
  <title>LinkedIn</title>
  <path d="M20.447 20.452h-3.554v-5.569c0-1.327-.027-3.037-1.851-3.037-1.853 0-2.136 1.447-2.136 2.942v5.664H9.352V9h3.415v1.561h.049c.476-.899 1.636-1.849 3.368-1.849 3.6 0 4.265 2.368 4.265 5.451v6.289zM5.337 7.433c-1.144 0-2.068-.926-2.068-2.067 0-1.142.924-2.068 2.068-2.068s2.067.926 2.067 2.068c0 1.141-.923 2.067-2.067 2.067zm1.777 13.019H3.56V9h3.554v11.452zM22.225 0H1.771C.792 0 0 .771 0 1.723v20.554C0 23.229.792 24 1.771 24h20.451C23.2 24 24 23.229 24 22.277V1.723C24 .771 23.2 0 22.222 0h.003z"/>
</svg>